<svg xmlns="http://www.w3.org/2000/svg" viewBox="0 0 1280 720" width="1280" height="720">
  <g id="background"><rect width="1280" height="720" fill="#0B1F3A"/><circle cx="1040" cy="230" r="220" fill="#1677FF" fill-opacity="0.12"/><circle cx="1100" cy="510" r="150" fill="#14B8A6" fill-opacity="0.12"/></g>
  <g id="cover-title"><text x="88" y="232" font-family="Microsoft YaHei, Arial, sans-serif" font-size="72" font-weight="bold" fill="#FFFFFF">智协库</text><text x="92" y="286" font-family="Microsoft YaHei, Arial, sans-serif" font-size="28" fill="#D8E1EE">面向企业内部的知识库与流程协作鸿蒙应用</text><line x1="92" y1="328" x2="420" y2="328" stroke="#14B8A6" stroke-width="6"/></g>
  <g id="cover-message"><text x="92" y="410" font-family="Microsoft YaHei, Arial, sans-serif" font-size="26" fill="#FFFFFF">让查知识、办流程、控风险在一个移动入口完成</text><text x="92" y="456" font-family="Microsoft YaHei, Arial, sans-serif" font-size="16" fill="#D8E1EE">HarmonyOS · ArkTS · ArkUI · NestJS · Prisma · SQLite</text></g>
  <g id="ecosystem"><circle cx="950" cy="360" r="80" fill="#FFFFFF" fill-opacity="0.10" stroke="#1677FF" stroke-width="3"/><text x="950" y="352" text-anchor="middle" font-family="Microsoft YaHei, Arial, sans-serif" font-size="24" font-weight="bold" fill="#FFFFFF">统一</text><text x="950" y="382" text-anchor="middle" font-family="Microsoft YaHei, Arial, sans-serif" font-size="24" font-weight="bold" fill="#FFFFFF">协作</text><line x1="890" y1="306" x2="770" y2="220" stroke="#14B8A6" stroke-width="3"/><line x1="1018" y1="305" x2="1124" y2="220" stroke="#14B8A6" stroke-width="3"/><line x1="950" y1="440" x2="950" y2="560" stroke="#14B8A6" stroke-width="3"/><rect x="670" y="168" width="180" height="80" rx="8" fill="#FFFFFF"/><text x="760" y="216" text-anchor="middle" font-family="Microsoft YaHei, Arial, sans-serif" font-size="22" font-weight="bold" fill="#0B1F3A">知识</text><rect x="1050" y="168" width="180" height="80" rx="8" fill="#FFFFFF"/><text x="1140" y="216" text-anchor="middle" font-family="Microsoft YaHei, Arial, sans-serif" font-size="22" font-weight="bold" fill="#0B1F3A">流程</text><rect x="860" y="560" width="180" height="80" rx="8" fill="#FFFFFF"/><text x="950" y="608" text-anchor="middle" font-family="Microsoft YaHei, Arial, sans-serif" font-size="22" font-weight="bold" fill="#0B1F3A">安全</text></g>
  <g id="footer"><text x="92" y="664" font-family="Microsoft YaHei, Arial, sans-serif" font-size="14" fill="#94A3B8">移动软件开发课程设计答辩 · 2026</text><text x="1180" y="664" text-anchor="end" font-family="Microsoft YaHei, Arial, sans-serif" font-size="14" fill="#94A3B8">01</text></g>
</svg>
