<svg xmlns="http://www.w3.org/2000/svg" viewBox="0 0 1280 720"><rect width="1280" height="720" fill="#F7F9FC" /><g id="title"><text x="56" y="76" font-family="Microsoft YaHei, Arial, sans-serif" font-size="40" font-weight="700" fill="#123B63">从知识查询到流程办理的移动闭环</text><text x="56" y="112" font-family="Microsoft YaHei, Arial, sans-serif" font-size="18" fill="#536273">产品价值在于知识理解驱动业务办理的连续路径</text></g><g id="flow"><line x1="170" y1="300" x2="1110" y2="300" stroke="#D7E0EA" stroke-width="6" /><circle cx="200" cy="300" r="58" fill="#123B63" /><circle cx="500" cy="300" r="58" fill="#E63B46" /><circle cx="800" cy="300" r="58" fill="#18A38A" /><circle cx="1100" cy="300" r="58" fill="#123B63" />
  <g transform="translate(172.0, 272.0) scale(0.21875)" fill="#F7F9FC">
    <path d="M232,64V192a8,8,0,0,1-8,8H160a32,32,0,0,0-32,32,32,32,0,0,0-32-32H32a8,8,0,0,1-8-8V64a8,8,0,0,1,8-8H96a32,32,0,0,1,32,32,32,32,0,0,1,32-32h64A8,8,0,0,1,232,64Z" opacity="0.2" />
    <path d="M224,48H160a40,40,0,0,0-32,16A40,40,0,0,0,96,48H32A16,16,0,0,0,16,64V192a16,16,0,0,0,16,16H96a24,24,0,0,1,24,24,8,8,0,0,0,16,0,24,24,0,0,1,24-24h64a16,16,0,0,0,16-16V64A16,16,0,0,0,224,48ZM96,192H32V64H96a24,24,0,0,1,24,24V200A39.81,39.81,0,0,0,96,192Zm128,0H160a39.81,39.81,0,0,0-24,8V88a24,24,0,0,1,24-24h64Z" />
  </g>
  <g transform="translate(472.0, 272.0) scale(0.21875)" fill="#F7F9FC">
    <path d="M200,56H56A24,24,0,0,0,32,80V192a24,24,0,0,0,24,24H200a24,24,0,0,0,24-24V80A24,24,0,0,0,200,56ZM164,184H92a20,20,0,0,1,0-40h72a20,20,0,0,1,0,40Z" opacity="0.2" />
    <path d="M200,48H136V16a8,8,0,0,0-16,0V48H56A32,32,0,0,0,24,80V192a32,32,0,0,0,32,32H200a32,32,0,0,0,32-32V80A32,32,0,0,0,200,48Zm16,144a16,16,0,0,1-16,16H56a16,16,0,0,1-16-16V80A16,16,0,0,1,56,64H200a16,16,0,0,1,16,16Zm-52-56H92a28,28,0,0,0,0,56h72a28,28,0,0,0,0-56Zm-28,16v24H120V152ZM80,164a12,12,0,0,1,12-12h12v24H92A12,12,0,0,1,80,164Zm84,12H152V152h12a12,12,0,0,1,0,24ZM72,108a12,12,0,1,1,12,12A12,12,0,0,1,72,108Zm88,0a12,12,0,1,1,12,12A12,12,0,0,1,160,108Z" />
  </g>
  <g transform="translate(772.0, 272.0) scale(0.21875)" fill="#F7F9FC">
    <path d="M208,72V184a8,8,0,0,1-8,8H176V104L136,64H80V40a8,8,0,0,1,8-8h80Z" opacity="0.2" />
    <path d="M213.66,66.34l-40-40A8,8,0,0,0,168,24H88A16,16,0,0,0,72,40V56H56A16,16,0,0,0,40,72V216a16,16,0,0,0,16,16H168a16,16,0,0,0,16-16V200h16a16,16,0,0,0,16-16V72A8,8,0,0,0,213.66,66.34ZM168,216H56V72h76.69L168,107.31v84.53c0,.06,0,.11,0,.16s0,.1,0,.16V216Zm32-32H184V104a8,8,0,0,0-2.34-5.66l-40-40A8,8,0,0,0,136,56H88V40h76.69L200,75.31Zm-56-32a8,8,0,0,1-8,8H88a8,8,0,0,1,0-16h48A8,8,0,0,1,144,152Zm0,32a8,8,0,0,1-8,8H88a8,8,0,0,1,0-16h48A8,8,0,0,1,144,184Z" />
  </g>
  <g transform="translate(1072.0, 272.0) scale(0.21875)" fill="#F7F9FC">
    <path d="M216,64V192H128V64Z" opacity="0.2" />
    <path d="M224,128a8,8,0,0,1-8,8H128a8,8,0,0,1,0-16h88A8,8,0,0,1,224,128ZM128,72h88a8,8,0,0,0,0-16H128a8,8,0,0,0,0,16Zm88,112H128a8,8,0,0,0,0,16h88a8,8,0,0,0,0-16ZM82.34,42.34,56,68.69,45.66,58.34A8,8,0,0,0,34.34,69.66l16,16a8,8,0,0,0,11.32,0l32-32A8,8,0,0,0,82.34,42.34Zm0,64L56,132.69,45.66,122.34a8,8,0,0,0-11.32,11.32l16,16a8,8,0,0,0,11.32,0l32-32a8,8,0,0,0-11.32-11.32Zm0,64L56,196.69,45.66,186.34a8,8,0,0,0-11.32,11.32l16,16a8,8,0,0,0,11.32,0l32-32a8,8,0,0,0-11.32-11.32Z" />
  </g><text x="200" y="395" text-anchor="middle" font-family="Microsoft YaHei, Arial, sans-serif" font-size="26" font-weight="700" fill="#123B63">查制度</text><text x="500" y="395" text-anchor="middle" font-family="Microsoft YaHei, Arial, sans-serif" font-size="26" font-weight="700" fill="#123B63">问助手</text><text x="800" y="395" text-anchor="middle" font-family="Microsoft YaHei, Arial, sans-serif" font-size="26" font-weight="700" fill="#123B63">智能预填</text><text x="1100" y="395" text-anchor="middle" font-family="Microsoft YaHei, Arial, sans-serif" font-size="26" font-weight="700" fill="#123B63">提交与跟踪</text></g><g id="takeaway"><path fill="#EAF0F7" d="M178,500 H1102 A8,8 0 0 1 1110,508 V584 A8,8 0 0 1 1102,592 H178 A8,8 0 0 1 170,584 V508 A8,8 0 0 1 178,500 Z" /><text x="640" y="556" text-anchor="middle" font-family="Microsoft YaHei, Arial, sans-serif" font-size="24" fill="#16212E">四类角色按权限获得不同的工作台、待办与可用功能</text></g><text x="1200" y="680" font-family="Microsoft YaHei, Arial, sans-serif" font-size="14" fill="#7C8997">02</text></svg>