<svg xmlns="http://www.w3.org/2000/svg" viewBox="0 0 1280 720"><rect width="1280" height="720" fill="#123B63" /><g id="title"><text x="56" y="78" font-family="Microsoft YaHei, Arial, sans-serif" font-size="40" font-weight="700" fill="#F7F9FC">鸿蒙端分层：ArkTS + ArkUI + Repository</text><text x="56" y="114" font-family="Microsoft YaHei, Arial, sans-serif" font-size="18" fill="#EAF0F7">页面与数据源解耦，支持从本地 Mock 到 HTTP 后端的平滑切换</text></g><g id="architecture"><path fill="#EAF0F7" d="M78,190 H282 A8,8 0 0 1 290,198 V432 A8,8 0 0 1 282,440 H78 A8,8 0 0 1 70,432 V198 A8,8 0 0 1 78,190 Z" /><path fill="#EAF0F7" d="M358,190 H562 A8,8 0 0 1 570,198 V432 A8,8 0 0 1 562,440 H358 A8,8 0 0 1 350,432 V198 A8,8 0 0 1 358,190 Z" /><path fill="#EAF0F7" d="M638,190 H842 A8,8 0 0 1 850,198 V432 A8,8 0 0 1 842,440 H638 A8,8 0 0 1 630,432 V198 A8,8 0 0 1 638,190 Z" /><path fill="#EAF0F7" d="M918,190 H1122 A8,8 0 0 1 1130,198 V432 A8,8 0 0 1 1122,440 H918 A8,8 0 0 1 910,432 V198 A8,8 0 0 1 918,190 Z" /><text x="180" y="260" text-anchor="middle" font-family="Microsoft YaHei, Arial, sans-serif" font-size="28" font-weight="700" fill="#123B63">HarmonyOS</text><text x="180" y="305" text-anchor="middle" font-family="Microsoft YaHei, Arial, sans-serif" font-size="20" fill="#536273">ArkTS · ArkUI</text><text x="460" y="260" text-anchor="middle" font-family="Microsoft YaHei, Arial, sans-serif" font-size="28" font-weight="700" fill="#123B63">UseCase</text><text x="460" y="305" text-anchor="middle" font-family="Microsoft YaHei, Arial, sans-serif" font-size="20" fill="#536273">Repository</text><text x="740" y="260" text-anchor="middle" font-family="Microsoft YaHei, Arial, sans-serif" font-size="28" font-weight="700" fill="#123B63">REST API</text><text x="740" y="305" text-anchor="middle" font-family="Microsoft YaHei, Arial, sans-serif" font-size="20" fill="#536273">NestJS Service</text><text x="1020" y="260" text-anchor="middle" font-family="Microsoft YaHei, Arial, sans-serif" font-size="28" font-weight="700" fill="#123B63">Data</text><text x="1020" y="305" text-anchor="middle" font-family="Microsoft YaHei, Arial, sans-serif" font-size="20" fill="#536273">Prisma · SQLite</text><line x1="290" y1="315" x2="350" y2="315" stroke="#E63B46" stroke-width="5" /><line x1="570" y1="315" x2="630" y2="315" stroke="#E63B46" stroke-width="5" /><line x1="850" y1="315" x2="910" y2="315" stroke="#E63B46" stroke-width="5" /></g><g id="takeaway">
  <g transform="translate(80.0, 520.0) scale(0.2109375)" fill="#18A38A">
    <path d="M216,56v58.77c0,84.18-71.31,112.07-85.54,116.8a7.54,7.54,0,0,1-4.92,0C111.31,226.86,40,199,40,114.79V56a8,8,0,0,1,8-8H208A8,8,0,0,1,216,56Z" opacity="0.2" />
    <path d="M208,40H48A16,16,0,0,0,32,56v58.78c0,89.61,75.82,119.34,91,124.39a15.53,15.53,0,0,0,10,0c15.2-5.05,91-34.78,91-124.39V56A16,16,0,0,0,208,40Zm0,74.79c0,78.42-66.35,104.62-80,109.18-13.53-4.51-80-30.69-80-109.18V56H208ZM82.34,141.66a8,8,0,0,1,11.32-11.32L112,148.68l50.34-50.34a8,8,0,0,1,11.32,11.32l-56,56a8,8,0,0,1-11.32,0Z" />
  </g><text x="160" y="552" font-family="Microsoft YaHei, Arial, sans-serif" font-size="26" fill="#F7F9FC">Token 鉴权 + 统一 code-message-data 响应，让端侧交互保持可预测。</text></g><text x="1200" y="680" font-family="Microsoft YaHei, Arial, sans-serif" font-size="14" fill="#EAF0F7">03</text></svg>