<svg xmlns="http://www.w3.org/2000/svg" viewBox="0 0 1280 720"><rect width="1280" height="720" fill="#F7F9FC"/><rect x="0" y="0" width="18" height="720" fill="#E63B46"/><g id="title"><text x="70" y="110" font-family="Microsoft YaHei, Arial, sans-serif" font-size="28" fill="#E63B46">邢思琦负责模块</text><text x="70" y="190" font-family="Microsoft YaHei, Arial, sans-serif" font-size="64" font-weight="700" fill="#123B63">名称与图标设计</text><text x="70" y="235" font-family="Microsoft YaHei, Arial, sans-serif" font-size="24" fill="#536273">将“白泽”的文化意象转译为企业知识理解与决策辅助</text></g><g id="hero"><circle cx="920" cy="330" r="155" fill="#EAF0F7"/><circle cx="920" cy="330" r="112" fill="#123B63"/><!-- icon: phosphor-duotone/book-open -->
  <g transform="translate(850.0, 260.0) scale(0.546875)" fill="#F7F9FC">
    <path d="M232,64V192a8,8,0,0,1-8,8H160a32,32,0,0,0-32,32,32,32,0,0,0-32-32H32a8,8,0,0,1-8-8V64a8,8,0,0,1,8-8H96a32,32,0,0,1,32,32,32,32,0,0,1,32-32h64A8,8,0,0,1,232,64Z" opacity="0.2"/>
    <path d="M224,48H160a40,40,0,0,0-32,16A40,40,0,0,0,96,48H32A16,16,0,0,0,16,64V192a16,16,0,0,0,16,16H96a24,24,0,0,1,24,24,8,8,0,0,0,16,0,24,24,0,0,1,24-24h64a16,16,0,0,0,16-16V64A16,16,0,0,0,224,48ZM96,192H32V64H96a24,24,0,0,1,24,24V200A39.81,39.81,0,0,0,96,192Zm128,0H160a39.81,39.81,0,0,0-24,8V88a24,24,0,0,1,24-24h64Z"/>
  </g><text x="920" y="535" text-anchor="middle" font-family="Microsoft YaHei, Arial, sans-serif" font-size="42" font-weight="700" fill="#123B63">白泽</text></g><g id="pillars"><text x="100" y="390" font-family="Microsoft YaHei, Arial, sans-serif" font-size="30" font-weight="700" fill="#123B63">识别知识</text><line x1="100" y1="415" x2="520" y2="415" stroke="#D7E0EA" stroke-width="2"/><text x="100" y="470" font-family="Microsoft YaHei, Arial, sans-serif" font-size="30" font-weight="700" fill="#123B63">推荐流程</text><line x1="100" y1="495" x2="520" y2="495" stroke="#D7E0EA" stroke-width="2"/><text x="100" y="550" font-family="Microsoft YaHei, Arial, sans-serif" font-size="30" font-weight="700" fill="#123B63">提示风险</text></g><text x="1200" y="680" font-family="Microsoft YaHei, Arial, sans-serif" font-size="14" fill="#7C8997">04</text></svg>
