<svg xmlns="http://www.w3.org/2000/svg" viewBox="0 0 1280 720"><rect width="1280" height="720" fill="#123B63"/><g id="title"><text x="56" y="78" font-family="Microsoft YaHei, Arial, sans-serif" font-size="40" font-weight="700" fill="#F7F9FC">新颖特点：智能理解驱动业务执行</text><text x="56" y="114" font-family="Microsoft YaHei, Arial, sans-serif" font-size="18" fill="#EAF0F7">智能预填不是普通跳转，而是将识别出的关键字段写入后续表单</text></g><g id="flow"><circle cx="170" cy="360" r="78" fill="#EAF0F7"/><circle cx="405" cy="360" r="78" fill="#EAF0F7"/><circle cx="640" cy="360" r="78" fill="#E63B46"/><circle cx="875" cy="360" r="78" fill="#EAF0F7"/><circle cx="1110" cy="360" r="78" fill="#18A38A"/><line x1="248" y1="360" x2="327" y2="360" stroke="#E63B46" stroke-width="5"/><line x1="483" y1="360" x2="562" y2="360" stroke="#E63B46" stroke-width="5"/><line x1="718" y1="360" x2="797" y2="360" stroke="#E63B46" stroke-width="5"/><line x1="953" y1="360" x2="1032" y2="360" stroke="#E63B46" stroke-width="5"/><text x="170" y="470" text-anchor="middle" font-family="Microsoft YaHei, Arial, sans-serif" font-size="22" fill="#F7F9FC">问题</text><text x="405" y="470" text-anchor="middle" font-family="Microsoft YaHei, Arial, sans-serif" font-size="22" fill="#F7F9FC">知识</text><text x="640" y="470" text-anchor="middle" font-family="Microsoft YaHei, Arial, sans-serif" font-size="22" fill="#F7F9FC">表单草稿</text><text x="875" y="470" text-anchor="middle" font-family="Microsoft YaHei, Arial, sans-serif" font-size="22" fill="#F7F9FC">审批</text><text x="1110" y="470" text-anchor="middle" font-family="Microsoft YaHei, Arial, sans-serif" font-size="22" fill="#F7F9FC">通知回流</text><!-- icon: phosphor-duotone/git-branch -->
  <g transform="translate(612.0, 332.0) scale(0.21875)" fill="#F7F9FC">
    <path d="M216,64a24,24,0,1,1-24-24A24,24,0,0,1,216,64Z" opacity="0.2"/>
    <path d="M224,64a32,32,0,1,0-40,31v9a16,16,0,0,1-16,16H96a31.71,31.71,0,0,0-16,4.31V95a32,32,0,1,0-16,0v66a32,32,0,1,0,16,0v-9a16,16,0,0,1,16-16h72a32,32,0,0,0,32-32V95A32.06,32.06,0,0,0,224,64ZM56,64A16,16,0,1,1,72,80,16,16,0,0,1,56,64ZM88,192a16,16,0,1,1-16-16A16,16,0,0,1,88,192ZM192,80a16,16,0,1,1,16-16A16,16,0,0,1,192,80Z"/>
  </g></g><text x="1200" y="680" font-family="Microsoft YaHei, Arial, sans-serif" font-size="14" fill="#EAF0F7">13</text></svg>
