<svg xmlns="http://www.w3.org/2000/svg" viewBox="0 0 1280 720"><rect width="1280" height="720" fill="#123B63"/><rect x="0" y="0" width="18" height="720" fill="#E63B46"/><g id="title"><text x="90" y="210" font-family="Microsoft YaHei, Arial, sans-serif" font-size="68" font-weight="700" fill="#F7F9FC">白泽</text><text x="90" y="270" font-family="Microsoft YaHei, Arial, sans-serif" font-size="32" fill="#EAF0F7">以鸿蒙组件化移动端为入口</text><text x="90" y="318" font-family="Microsoft YaHei, Arial, sans-serif" font-size="32" fill="#EAF0F7">完成知识、智能与协作的可演示业务闭环</text></g><g id="outcomes"><line x1="90" y1="410" x2="1110" y2="410" stroke="#D7E0EA" stroke-width="2"/><text x="90" y="480" font-family="Microsoft YaHei, Arial, sans-serif" font-size="28" fill="#18A38A">ArkTS / ArkUI 实践</text><text x="450" y="480" font-family="Microsoft YaHei, Arial, sans-serif" font-size="28" fill="#F7F9FC">前后端分层协作</text><text x="810" y="480" font-family="Microsoft YaHei, Arial, sans-serif" font-size="28" fill="#F7F9FC">知识到业务执行</text></g><g id="thanks"><!-- icon: phosphor-duotone/shield-check -->
  <g transform="translate(92.0, 565.0) scale(0.1875)" fill="#E63B46">
    <path d="M216,56v58.77c0,84.18-71.31,112.07-85.54,116.8a7.54,7.54,0,0,1-4.92,0C111.31,226.86,40,199,40,114.79V56a8,8,0,0,1,8-8H208A8,8,0,0,1,216,56Z" opacity="0.2"/>
    <path d="M208,40H48A16,16,0,0,0,32,56v58.78c0,89.61,75.82,119.34,91,124.39a15.53,15.53,0,0,0,10,0c15.2-5.05,91-34.78,91-124.39V56A16,16,0,0,0,208,40Zm0,74.79c0,78.42-66.35,104.62-80,109.18-13.53-4.51-80-30.69-80-109.18V56H208ZM82.34,141.66a8,8,0,0,1,11.32-11.32L112,148.68l50.34-50.34a8,8,0,0,1,11.32,11.32l-56,56a8,8,0,0,1-11.32,0Z"/>
  </g><text x="158" y="602" font-family="Microsoft YaHei, Arial, sans-serif" font-size="32" font-weight="700" fill="#F7F9FC">谢谢老师</text></g><text x="1200" y="680" font-family="Microsoft YaHei, Arial, sans-serif" font-size="14" fill="#EAF0F7">15</text></svg>
