<svg xmlns="http://www.w3.org/2000/svg" viewBox="0 0 1280 720"><rect width="1280" height="720" fill="#FFFFFF" /><text x="60" y="75" font-family="Microsoft YaHei, Arial, sans-serif" font-size="38" font-weight="bold" fill="#0B1F3A">智协库将四类高频能力收敛为一个移动闭环</text><g id="core"><circle cx="640" cy="370" r="110" fill="#0B1F3A" /><text x="640" y="360" text-anchor="middle" font-family="Microsoft YaHei, Arial, sans-serif" font-size="32" font-weight="bold" fill="#FFFFFF">智协库</text><text x="640" y="400" text-anchor="middle" font-family="Microsoft YaHei, Arial, sans-serif" font-size="22" fill="#FFFFFF">统一工作台</text></g><g id="nodes"><path fill="#F5F8FC" stroke="#1677FF" d="M128,210 H362 A8,8 0 0 1 370,218 V292 A8,8 0 0 1 362,300 H128 A8,8 0 0 1 120,292 V218 A8,8 0 0 1 128,210 Z" /><text x="245" y="265" text-anchor="middle" font-family="Microsoft YaHei, Arial, sans-serif" font-size="28" fill="#0B1F3A">知识库</text><path fill="#F5F8FC" stroke="#1677FF" d="M918,210 H1152 A8,8 0 0 1 1160,218 V292 A8,8 0 0 1 1152,300 H918 A8,8 0 0 1 910,292 V218 A8,8 0 0 1 918,210 Z" /><text x="1035" y="265" text-anchor="middle" font-family="Microsoft YaHei, Arial, sans-serif" font-size="28" fill="#0B1F3A">流程协作</text><path fill="#F5F8FC" stroke="#14B8A6" d="M128,460 H362 A8,8 0 0 1 370,468 V542 A8,8 0 0 1 362,550 H128 A8,8 0 0 1 120,542 V468 A8,8 0 0 1 128,460 Z" /><text x="245" y="515" text-anchor="middle" font-family="Microsoft YaHei, Arial, sans-serif" font-size="28" fill="#0B1F3A">智能助手</text><path fill="#F5F8FC" stroke="#14B8A6" d="M918,460 H1152 A8,8 0 0 1 1160,468 V542 A8,8 0 0 1 1152,550 H918 A8,8 0 0 1 910,542 V468 A8,8 0 0 1 918,460 Z" /><text x="1035" y="515" text-anchor="middle" font-family="Microsoft YaHei, Arial, sans-serif" font-size="28" fill="#0B1F3A">安全治理</text></g><text x="1210" y="680" text-anchor="end" font-family="Microsoft YaHei, Arial, sans-serif" font-size="14" fill="#94A3B8">05</text></svg>