<svg xmlns="http://www.w3.org/2000/svg" viewBox="0 0 1280 720"><rect width="1280" height="720" fill="#F5F8FC" /><text x="60" y="75" font-family="Microsoft YaHei, Arial, sans-serif" font-size="38" font-weight="bold" fill="#0B1F3A">优势不止于功能齐全，而是将业务链路缩短</text><g id="benefits"><path fill="#FFFFFF" d="M68,160 H322 A8,8 0 0 1 330,168 V542 A8,8 0 0 1 322,550 H68 A8,8 0 0 1 60,542 V168 A8,8 0 0 1 68,160 Z" /><path fill="#FFFFFF" d="M358,160 H612 A8,8 0 0 1 620,168 V542 A8,8 0 0 1 612,550 H358 A8,8 0 0 1 350,542 V168 A8,8 0 0 1 358,160 Z" /><path fill="#FFFFFF" d="M648,160 H902 A8,8 0 0 1 910,168 V542 A8,8 0 0 1 902,550 H648 A8,8 0 0 1 640,542 V168 A8,8 0 0 1 648,160 Z" /><path fill="#FFFFFF" d="M938,160 H1192 A8,8 0 0 1 1200,168 V542 A8,8 0 0 1 1192,550 H938 A8,8 0 0 1 930,542 V168 A8,8 0 0 1 938,160 Z" /><text x="90" y="240" font-family="Microsoft YaHei, Arial, sans-serif" font-size="28" font-weight="bold" fill="#1677FF">集中入口</text><text x="90" y="300" font-family="Microsoft YaHei, Arial, sans-serif" font-size="20" fill="#64748B">减少应用切换</text><text x="380" y="240" font-family="Microsoft YaHei, Arial, sans-serif" font-size="28" font-weight="bold" fill="#1677FF">知识联动</text><text x="380" y="300" font-family="Microsoft YaHei, Arial, sans-serif" font-size="20" fill="#64748B">减少填单错误</text><text x="670" y="240" font-family="Microsoft YaHei, Arial, sans-serif" font-size="28" font-weight="bold" fill="#14B8A6">状态可视</text><text x="670" y="300" font-family="Microsoft YaHei, Arial, sans-serif" font-size="20" fill="#64748B">减少人工催办</text><text x="960" y="240" font-family="Microsoft YaHei, Arial, sans-serif" font-size="28" font-weight="bold" fill="#F59E0B">安全留痕</text><text x="960" y="300" font-family="Microsoft YaHei, Arial, sans-serif" font-size="20" fill="#64748B">关键操作可审计</text></g><text x="1210" y="680" text-anchor="end" font-family="Microsoft YaHei, Arial, sans-serif" font-size="14" fill="#94A3B8">06</text></svg>