<svg xmlns="http://www.w3.org/2000/svg" viewBox="0 0 1280 720"><rect width="1280" height="720" fill="#F5F8FC" /><g id="header"><text x="60" y="75" font-family="Microsoft YaHei, Arial, sans-serif" font-size="38" font-weight="bold" fill="#0B1F3A">ArkTS 与 ArkUI 将业务拆为独立、可演示的功能模块</text></g><g id="app-shell"><path fill="#FFFFFF" stroke="#D8E1EE" d="M78,145 H1202 A8,8 0 0 1 1210,153 V587 A8,8 0 0 1 1202,595 H78 A8,8 0 0 1 70,587 V153 A8,8 0 0 1 78,145 Z" /><path fill="#0B1F3A" d="M108,180 H1172 A8,8 0 0 1 1180,188 V242 A8,8 0 0 1 1172,250 H108 A8,8 0 0 1 100,242 V188 A8,8 0 0 1 108,180 Z" /><text x="640" y="225" text-anchor="middle" font-family="Microsoft YaHei, Arial, sans-serif" font-size="28" font-weight="bold" fill="#FFFFFF">智协库应用壳层 · 公共模型 · 服务层</text><path fill="#F5F8FC" stroke="#1677FF" d="M128,300 H332 A8,8 0 0 1 340,308 V412 A8,8 0 0 1 332,420 H128 A8,8 0 0 1 120,412 V308 A8,8 0 0 1 128,300 Z" /><path fill="#F5F8FC" stroke="#1677FF" d="M378,300 H582 A8,8 0 0 1 590,308 V412 A8,8 0 0 1 582,420 H378 A8,8 0 0 1 370,412 V308 A8,8 0 0 1 378,300 Z" /><path fill="#F5F8FC" stroke="#1677FF" d="M628,300 H832 A8,8 0 0 1 840,308 V412 A8,8 0 0 1 832,420 H628 A8,8 0 0 1 620,412 V308 A8,8 0 0 1 628,300 Z" /><path fill="#F5F8FC" stroke="#1677FF" d="M878,300 H1082 A8,8 0 0 1 1090,308 V412 A8,8 0 0 1 1082,420 H878 A8,8 0 0 1 870,412 V308 A8,8 0 0 1 878,300 Z" /><text x="230" y="370" text-anchor="middle" font-family="Microsoft YaHei, Arial, sans-serif" font-size="25" fill="#0B1F3A">工作台</text><text x="480" y="370" text-anchor="middle" font-family="Microsoft YaHei, Arial, sans-serif" font-size="25" fill="#0B1F3A">知识库</text><text x="730" y="370" text-anchor="middle" font-family="Microsoft YaHei, Arial, sans-serif" font-size="25" fill="#0B1F3A">智能助手</text><text x="980" y="370" text-anchor="middle" font-family="Microsoft YaHei, Arial, sans-serif" font-size="25" fill="#0B1F3A">流程与消息</text><text x="640" y="510" text-anchor="middle" font-family="Microsoft YaHei, Arial, sans-serif" font-size="21" fill="#64748B">components · services · models · mock · pages</text></g><g id="footer"><text x="1210" y="680" text-anchor="end" font-family="Microsoft YaHei, Arial, sans-serif" font-size="14" fill="#94A3B8">08</text></g></svg>