<svg xmlns="http://www.w3.org/2000/svg" viewBox="0 0 1280 720"><rect width="1280" height="720" fill="#FFFFFF" /><text x="60" y="75" font-family="Microsoft YaHei, Arial, sans-serif" font-size="38" font-weight="bold" fill="#0B1F3A">移动端、REST API 与数据层职责清晰</text><g id="architecture"><path fill="#F5F8FC" stroke="#1677FF" d="M78,180 H332 A8,8 0 0 1 340,188 V512 A8,8 0 0 1 332,520 H78 A8,8 0 0 1 70,512 V188 A8,8 0 0 1 78,180 Z" /><text x="205" y="245" text-anchor="middle" font-family="Microsoft YaHei, Arial, sans-serif" font-size="28" font-weight="bold" fill="#0B1F3A">HarmonyOS 前端</text><text x="205" y="300" text-anchor="middle" font-family="Microsoft YaHei, Arial, sans-serif" font-size="20" fill="#64748B">ArkTS</text><text x="205" y="338" text-anchor="middle" font-family="Microsoft YaHei, Arial, sans-serif" font-size="20" fill="#64748B">ArkUI</text><text x="205" y="376" text-anchor="middle" font-family="Microsoft YaHei, Arial, sans-serif" font-size="20" fill="#64748B">交互与体验</text><line x1="350" y1="350" x2="490" y2="350" stroke="#1677FF" stroke-width="5" /><polygon points="490,350 468,338 468,362" fill="#1677FF" /><text x="420" y="325" text-anchor="middle" font-family="Microsoft YaHei, Arial, sans-serif" font-size="16" fill="#64748B">Bearer Token + REST</text><path fill="#F5F8FC" stroke="#14B8A6" d="M508,180 H762 A8,8 0 0 1 770,188 V512 A8,8 0 0 1 762,520 H508 A8,8 0 0 1 500,512 V188 A8,8 0 0 1 508,180 Z" /><text x="635" y="245" text-anchor="middle" font-family="Microsoft YaHei, Arial, sans-serif" font-size="28" font-weight="bold" fill="#0B1F3A">业务服务</text><text x="635" y="300" text-anchor="middle" font-family="Microsoft YaHei, Arial, sans-serif" font-size="20" fill="#64748B">NestJS Modules</text><text x="635" y="338" text-anchor="middle" font-family="Microsoft YaHei, Arial, sans-serif" font-size="20" fill="#64748B">认证 · 知识 · 流程</text><text x="635" y="376" text-anchor="middle" font-family="Microsoft YaHei, Arial, sans-serif" font-size="20" fill="#64748B">通知 · 助手</text><line x1="780" y1="350" x2="920" y2="350" stroke="#14B8A6" stroke-width="5" /><polygon points="920,350 898,338 898,362" fill="#14B8A6" /><path fill="#F5F8FC" stroke="#F59E0B" d="M938,180 H1192 A8,8 0 0 1 1200,188 V512 A8,8 0 0 1 1192,520 H938 A8,8 0 0 1 930,512 V188 A8,8 0 0 1 938,180 Z" /><text x="1065" y="245" text-anchor="middle" font-family="Microsoft YaHei, Arial, sans-serif" font-size="28" font-weight="bold" fill="#0B1F3A">数据访问</text><text x="1065" y="300" text-anchor="middle" font-family="Microsoft YaHei, Arial, sans-serif" font-size="20" fill="#64748B">Prisma ORM</text><text x="1065" y="338" text-anchor="middle" font-family="Microsoft YaHei, Arial, sans-serif" font-size="20" fill="#64748B">SQLite</text><text x="1065" y="376" text-anchor="middle" font-family="Microsoft YaHei, Arial, sans-serif" font-size="20" fill="#64748B">课程演示持久化</text></g><text x="1210" y="680" text-anchor="end" font-family="Microsoft YaHei, Arial, sans-serif" font-size="14" fill="#94A3B8">09</text></svg>