<svg xmlns="http://www.w3.org/2000/svg" viewBox="0 0 1280 720"><rect width="1280" height="720" fill="#F5F8FC"/><text x="60" y="75" font-family="Microsoft YaHei, Arial, sans-serif" font-size="38" font-weight="bold" fill="#0B1F3A">知识驱动流程，而不是把知识当附件</text><g id="chain"><polygon points="80,240 260,240 300,330 260,420 80,420 120,330" fill="#1677FF"/><polygon points="310,240 490,240 530,330 490,420 310,420 350,330" fill="#1677FF" fill-opacity="0.85"/><polygon points="540,240 720,240 760,330 720,420 540,420 580,330" fill="#1677FF" fill-opacity="0.70"/><polygon points="770,240 950,240 990,330 950,420 770,420 810,330" fill="#14B8A6"/><polygon points="1000,240 1170,240 1210,330 1170,420 1000,420 1040,330" fill="#0B1F3A"/><text x="190" y="337" text-anchor="middle" font-family="Microsoft YaHei, Arial, sans-serif" font-size="22" fill="#FFFFFF">自然语言提问</text><text x="420" y="337" text-anchor="middle" font-family="Microsoft YaHei, Arial, sans-serif" font-size="22" fill="#FFFFFF">知识匹配</text><text x="650" y="337" text-anchor="middle" font-family="Microsoft YaHei, Arial, sans-serif" font-size="22" fill="#FFFFFF">返回摘要</text><text x="880" y="337" text-anchor="middle" font-family="Microsoft YaHei, Arial, sans-serif" font-size="22" fill="#FFFFFF">推荐流程</text><text x="1100" y="337" text-anchor="middle" font-family="Microsoft YaHei, Arial, sans-serif" font-size="22" fill="#FFFFFF">合规办理</text></g><text x="640" y="540" text-anchor="middle" font-family="Microsoft YaHei, Arial, sans-serif" font-size="25" fill="#1F2937">在业务办理的关键时刻提供制度依据，降低理解与填写成本。</text><text x="1210" y="680" text-anchor="end" font-family="Microsoft YaHei, Arial, sans-serif" font-size="14" fill="#94A3B8">12</text></svg>
