<svg xmlns="http://www.w3.org/2000/svg" viewBox="0 0 1280 720"><rect width="1280" height="720" fill="#FFFFFF" /><text x="60" y="75" font-family="Microsoft YaHei, Arial, sans-serif" font-size="38" font-weight="bold" fill="#0B1F3A">平台特色需要真实说明，而不是将规划写成已交付</text><g id="layers"><path fill="#E6F7F3" d="M108,170 H1172 A8,8 0 0 1 1180,178 V272 A8,8 0 0 1 1172,280 H108 A8,8 0 0 1 100,272 V178 A8,8 0 0 1 108,170 Z" /><text x="140" y="215" font-family="Microsoft YaHei, Arial, sans-serif" font-size="27" font-weight="bold" fill="#0F9F6E">已实现：真实 API 接入</text><text x="140" y="252" font-family="Microsoft YaHei, Arial, sans-serif" font-size="20" fill="#1F2937">FormKit 服务卡片 · CoreVisionKit OCR · MediaLibraryKit/ImageKit · Preferences</text><path fill="#EEF5FF" d="M108,310 H1172 A8,8 0 0 1 1180,318 V412 A8,8 0 0 1 1172,420 H108 A8,8 0 0 1 100,412 V318 A8,8 0 0 1 108,310 Z" /><text x="140" y="355" font-family="Microsoft YaHei, Arial, sans-serif" font-size="27" font-weight="bold" fill="#1677FF">可演示：稳定体验与降级策略</text><text x="140" y="392" font-family="Microsoft YaHei, Arial, sans-serif" font-size="20" fill="#1F2937">OCR 失败降级 · 沉浸光感 · 可变字号 · 模拟智能问答</text><path fill="#FFF7E7" d="M108,450 H1172 A8,8 0 0 1 1180,458 V552 A8,8 0 0 1 1172,560 H108 A8,8 0 0 1 100,552 V458 A8,8 0 0 1 108,450 Z" /><text x="140" y="495" font-family="Microsoft YaHei, Arial, sans-serif" font-size="27" font-weight="bold" fill="#F59E0B">预留：系统级智能与安全能力</text><text x="140" y="532" font-family="Microsoft YaHei, Arial, sans-serif" font-size="20" fill="#1F2937">Agent · Skill · 闪控窗 · 碰一碰 · 数字身份 · 数字盾</text></g><text x="1210" y="680" text-anchor="end" font-family="Microsoft YaHei, Arial, sans-serif" font-size="14" fill="#94A3B8">15</text></svg>