<svg xmlns="http://www.w3.org/2000/svg" viewBox="0 0 1280 720"><rect width="1280" height="720" fill="#FFFFFF" /><text x="60" y="75" font-family="Microsoft YaHei, Arial, sans-serif" font-size="38" font-weight="bold" fill="#0B1F3A">四项创新共同支撑可用、可控、可扩展的协作体验</text><g id="pillars"><path fill="#F5F8FC" d="M78,170 H322 A8,8 0 0 1 330,178 V552 A8,8 0 0 1 322,560 H78 A8,8 0 0 1 70,552 V178 A8,8 0 0 1 78,170 Z" /><path fill="#F5F8FC" d="M368,170 H612 A8,8 0 0 1 620,178 V552 A8,8 0 0 1 612,560 H368 A8,8 0 0 1 360,552 V178 A8,8 0 0 1 368,170 Z" /><path fill="#F5F8FC" d="M658,170 H902 A8,8 0 0 1 910,178 V552 A8,8 0 0 1 902,560 H658 A8,8 0 0 1 650,552 V178 A8,8 0 0 1 658,170 Z" /><path fill="#F5F8FC" d="M948,170 H1192 A8,8 0 0 1 1200,178 V552 A8,8 0 0 1 1192,560 H948 A8,8 0 0 1 940,552 V178 A8,8 0 0 1 948,170 Z" /><text x="100" y="240" font-family="Microsoft YaHei, Arial, sans-serif" font-size="26" font-weight="bold" fill="#1677FF">知识-流程联动</text><text x="100" y="300" font-family="Microsoft YaHei, Arial, sans-serif" font-size="19" fill="#64748B">依据进入办理时刻</text><text x="390" y="240" font-family="Microsoft YaHei, Arial, sans-serif" font-size="26" font-weight="bold" fill="#1677FF">智能辅助</text><text x="390" y="300" font-family="Microsoft YaHei, Arial, sans-serif" font-size="19" fill="#64748B">问题转行动建议</text><text x="680" y="240" font-family="Microsoft YaHei, Arial, sans-serif" font-size="26" font-weight="bold" fill="#14B8A6">安全审计</text><text x="680" y="300" font-family="Microsoft YaHei, Arial, sans-serif" font-size="19" fill="#64748B">确认、权限、日志联动</text><text x="970" y="240" font-family="Microsoft YaHei, Arial, sans-serif" font-size="26" font-weight="bold" fill="#F59E0B">原生与扩展</text><text x="970" y="300" font-family="Microsoft YaHei, Arial, sans-serif" font-size="19" fill="#64748B">卡片、OCR、前后端解耦</text></g><text x="1210" y="680" text-anchor="end" font-family="Microsoft YaHei, Arial, sans-serif" font-size="14" fill="#94A3B8">19</text></svg>