<svg xmlns="http://www.w3.org/2000/svg" viewBox="0 0 1280 720"><rect width="1280" height="720" fill="#0B1F3A" /><g id="summary"><text x="90" y="175" font-family="Microsoft YaHei, Arial, sans-serif" font-size="60" font-weight="bold" fill="#FFFFFF">让每一次协作都有依据、有进度、有留痕</text><line x1="92" y1="235" x2="500" y2="235" stroke="#14B8A6" stroke-width="6" /><text x="95" y="340" font-family="Microsoft YaHei, Arial, sans-serif" font-size="28" fill="#FFFFFF">解决查知识难、办流程慢、审批依据不统一</text><text x="95" y="410" font-family="Microsoft YaHei, Arial, sans-serif" font-size="28" fill="#FFFFFF">已形成前后端协作的可运行业务服务</text><text x="95" y="480" font-family="Microsoft YaHei, Arial, sans-serif" font-size="28" fill="#FFFFFF">以真实能力边界呈现 HarmonyOS 平台特色</text></g><g id="tags"><path fill="#1677FF" d="M103,570 H247 A8,8 0 0 1 255,578 V608 A8,8 0 0 1 247,616 H103 A8,8 0 0 1 95,608 V578 A8,8 0 0 1 103,570 Z" /><path fill="#14B8A6" d="M283,570 H427 A8,8 0 0 1 435,578 V608 A8,8 0 0 1 427,616 H283 A8,8 0 0 1 275,608 V578 A8,8 0 0 1 283,570 Z" /><path fill="#FFFFFF" d="M463,570 H607 A8,8 0 0 1 615,578 V608 A8,8 0 0 1 607,616 H463 A8,8 0 0 1 455,608 V578 A8,8 0 0 1 463,570 Z" /><text x="175" y="600" text-anchor="middle" font-family="Microsoft YaHei, Arial, sans-serif" font-size="20" fill="#FFFFFF">业务闭环</text><text x="355" y="600" text-anchor="middle" font-family="Microsoft YaHei, Arial, sans-serif" font-size="20" fill="#FFFFFF">工程扩展</text><text x="535" y="600" text-anchor="middle" font-family="Microsoft YaHei, Arial, sans-serif" font-size="20" fill="#0B1F3A">平台特色</text></g><text x="1190" y="670" text-anchor="end" font-family="Microsoft YaHei, Arial, sans-serif" font-size="14" fill="#94A3B8">20</text></svg>